<?xml version="1.0" standalone="no"?>
<!DOCTYPE svg PUBLIC "-//W3C//DTD SVG 20010904//EN"
 "http://www.w3.org/TR/2001/REC-SVG-20010904/DTD/svg10.dtd">
<svg version="1.0" xmlns="http://www.w3.org/2000/svg"
 width="600.000000pt" height="608.000000pt" viewBox="0 0 600.000000 608.000000"
 preserveAspectRatio="xMidYMid meet">

<g transform="translate(0.000000,608.000000) scale(0.100000,-0.100000)"
fill="#000000" stroke="none">
<path d="M320 5310 c0 -31 24 -87 110 -253 60 -118 106 -217 102 -221 -4 -4
-75 -40 -157 -80 -152 -73 -315 -170 -315 -187 0 -13 150 -109 246 -157 152
-76 238 -108 456 -167 99 -27 139 -42 155 -60 29 -33 173 -288 173 -308 0 -11
-21 -18 -87 -27 -133 -18 -301 -57 -420 -96 -180 -59 -523 -238 -523 -273 0
-5 30 -29 68 -54 227 -149 511 -256 808 -303 83 -13 165 -17 347 -16 l238 1
34 -53 c68 -107 157 -278 149 -286 -5 -5 -41 -3 -81 5 -423 81 -897 16 -1288
-175 -141 -70 -279 -156 -270 -170 20 -32 230 -151 380 -215 125 -53 300 -106
440 -131 81 -15 148 -19 355 -18 236 0 264 2 378 26 67 14 185 45 262 69 77
23 142 40 144 38 6 -6 283 -493 551 -969 292 -521 346 -601 387 -584 7 3 69
107 137 232 279 513 737 1324 752 1333 11 6 70 -8 185 -41 92 -28 211 -59 264
-70 418 -85 872 -25 1275 170 126 61 275 153 275 169 0 13 -93 76 -190 129
-249 136 -552 224 -838 242 -158 10 -382 -1 -522 -25 -94 -16 -140 -19 -140
-7 0 4 42 86 94 182 l94 175 224 -3 c332 -6 553 26 798 114 179 65 486 231
477 259 -10 31 -256 169 -417 234 -150 59 -363 111 -568 136 -31 4 -56 13 -59
21 -5 13 123 270 155 310 13 16 65 35 205 73 104 28 234 70 290 94 177 74 397
200 397 226 0 22 -255 164 -448 250 -46 20 -53 26 -48 45 3 13 46 99 96 193
76 144 90 177 90 217 l0 46 -2610 0 -2610 0 0 -40z m2543 -877 c14 -1646 6
-3460 -13 -3448 -11 7 -99 160 -377 655 -329 585 -336 598 -330 613 3 8 47 39
99 70 122 75 151 98 143 118 -11 30 -197 133 -426 237 -64 29 -69 33 -124 123
-97 157 -189 329 -179 338 5 5 82 32 171 61 228 73 542 232 551 280 6 35 -288
197 -475 261 -170 58 -295 86 -487 108 -106 12 -173 24 -182 32 -17 18 -174
287 -174 299 0 6 52 10 129 10 301 0 567 54 831 167 134 58 282 139 329 180
l36 33 -25 20 c-116 96 -300 184 -563 269 -191 62 -289 75 -572 75 -209 0
-255 -3 -355 -23 -203 -40 -193 -40 -229 10 -35 48 -154 259 -170 301 -9 24
-7 27 12 31 12 2 551 5 1198 6 l1176 1 6 -827z m2532 815 c8 -8 -128 -274
-160 -313 l-20 -25 -105 19 c-190 34 -311 44 -482 38 -283 -9 -496 -55 -736
-158 -189 -81 -362 -181 -362 -209 0 -41 282 -192 500 -268 206 -71 342 -95
623 -111 87 -5 161 -11 164 -14 7 -7 -136 -282 -160 -308 -11 -11 -31 -19 -52
-19 -53 0 -260 -29 -365 -51 -117 -24 -251 -67 -369 -118 -99 -43 -319 -169
-341 -196 -18 -22 -2 -34 145 -114 165 -90 271 -137 403 -180 66 -21 127 -43
136 -48 14 -8 11 -19 -24 -93 -65 -133 -202 -374 -219 -385 -9 -5 -48 -24 -86
-41 -146 -65 -365 -194 -365 -215 0 -5 50 -42 110 -81 61 -39 110 -75 110 -80
0 -14 -140 -269 -443 -808 -254 -452 -300 -530 -317 -530 -6 0 -10 799 -10
2160 l0 2160 1209 -2 c665 -2 1212 -6 1216 -10z m-634 -419 c85 -21 169 -120
184 -215 23 -153 -137 -312 -292 -290 -93 13 -179 83 -214 175 -25 66 -21 127
12 193 29 59 56 86 114 116 82 42 104 44 196 21z m322 1 c190 -42 506 -167
550 -218 19 -20 18 -21 -20 -46 -58 -39 -252 -122 -362 -156 -115 -35 -240
-62 -258 -56 -9 4 -5 22 17 68 27 56 30 73 30 160 0 93 -1 100 -40 174 -37 72
-42 94 -19 94 5 0 51 -9 102 -20z m-709 -57 c-18 -38 -39 -96 -46 -131 -11
-55 -10 -72 9 -150 12 -48 24 -98 29 -111 7 -24 7 -24 -51 -16 -153 19 -455
129 -583 213 -33 22 -16 37 113 98 186 88 418 161 522 163 l41 1 -34 -67z
m-3424 43 c0 -3 -18 -41 -39 -86 -50 -103 -59 -165 -37 -263 9 -41 23 -83 31
-93 8 -10 15 -27 15 -38 0 -16 -5 -17 -47 -11 -175 26 -619 203 -611 243 6 31
264 149 443 202 120 35 245 59 245 46z m807 -51 c170 -48 438 -170 438 -200 0
-12 -169 -96 -293 -145 -109 -43 -357 -108 -368 -97 -4 3 0 21 9 39 27 58 38
117 38 199 0 83 -22 150 -71 219 -19 26 -19 29 -3 32 31 6 123 -11 250 -47z
m-432 26 c94 -43 159 -140 159 -236 1 -136 -128 -265 -265 -265 -48 0 -134 39
-174 77 -132 128 -97 342 70 419 63 30 152 32 210 5z m3836 -1076 c137 -35
259 -80 370 -135 123 -62 130 -71 86 -104 -48 -37 -189 -100 -325 -145 -125
-42 -287 -79 -298 -69 -3 4 5 35 19 70 49 124 44 221 -18 341 -19 38 -33 72
-30 76 6 10 67 -1 196 -34z m-753 28 c-1 -5 -18 -37 -35 -73 -60 -120 -64
-237 -12 -355 11 -26 19 -49 16 -51 -10 -10 -183 29 -290 66 -139 48 -313 123
-347 150 l-25 20 25 22 c33 28 179 96 305 143 151 56 375 104 363 78z m389
-23 c94 -47 145 -127 146 -230 0 -60 -28 -138 -66 -178 -36 -39 -113 -72 -180
-79 -52 -4 -70 -2 -112 18 -100 47 -173 162 -162 257 8 71 55 152 111 190 92
61 171 68 263 22z m-3847 5 c0 -2 -15 -33 -34 -67 -62 -113 -68 -255 -17 -357
12 -22 21 -45 21 -51 0 -40 -326 53 -527 151 -89 43 -123 64 -123 77 0 34 227
143 405 196 146 42 275 66 275 51z m376 -21 c90 -38 154 -136 154 -237 0 -105
-49 -183 -144 -228 -138 -65 -286 -14 -345 121 -31 72 -35 113 -16 174 48 152
208 230 351 170z m374 -11 c160 -39 434 -154 470 -198 13 -15 11 -20 -10 -38
-57 -46 -310 -149 -475 -192 -152 -39 -156 -37 -119 70 13 38 24 89 24 115 0
64 -25 155 -60 217 -17 29 -30 56 -30 59 0 10 83 -4 200 -33z m-774 -1074
c-40 -73 -61 -176 -53 -250 3 -27 17 -76 31 -110 14 -35 23 -66 21 -70 -6 -8
-137 20 -253 55 -158 48 -402 164 -402 191 0 16 213 122 320 158 144 49 354
102 368 91 2 -1 -13 -30 -32 -65z m3476 65 c4 -3 -7 -27 -23 -52 -64 -105 -72
-226 -23 -362 13 -37 24 -70 24 -73 0 -17 -263 52 -393 104 -132 51 -262 121
-262 140 0 20 231 134 345 169 189 59 319 88 332 74z m395 -30 c124 -59 180
-205 124 -329 -45 -102 -128 -155 -241 -155 -82 0 -154 38 -200 105 -66 96
-73 170 -26 262 31 60 56 88 106 113 87 44 149 45 237 4z m333 5 c200 -50 515
-184 515 -219 0 -16 -184 -113 -285 -151 -110 -41 -365 -107 -375 -97 -2 2 7
28 20 57 56 119 53 240 -8 361 -17 36 -33 68 -35 73 -7 14 47 7 168 -24z
m-3818 1 c73 -27 122 -70 154 -136 23 -48 26 -63 22 -123 -8 -103 -55 -170
-153 -217 -130 -62 -277 -2 -340 137 -23 52 -27 71 -22 116 8 74 52 149 112
190 81 56 142 65 227 33z m394 -16 c165 -43 403 -140 473 -193 l24 -19 -44
-28 c-124 -79 -431 -192 -572 -210 -57 -8 -56 -15 -17 91 18 50 21 76 18 150
-3 80 -8 98 -41 163 -20 39 -37 75 -37 78 0 10 89 -4 196 -32z"/>
<path d="M4445 1709 c-101 -8 -264 -44 -405 -90 -173 -56 -520 -238 -520 -273
0 -21 106 -86 277 -169 265 -129 521 -195 804 -204 349 -12 687 60 992 212
129 64 247 139 254 161 9 28 -260 176 -442 244 -136 51 -306 95 -444 114 -118
17 -356 19 -516 5z m-64 -172 c-66 -115 -74 -240 -24 -365 14 -35 22 -66 19
-69 -10 -10 -161 26 -288 67 -134 44 -368 154 -368 173 0 26 217 133 370 182
110 35 235 63 283 64 l38 1 -30 -53z m414 22 c77 -39 98 -60 126 -122 44 -101
23 -204 -59 -290 -39 -40 -122 -77 -175 -77 -78 0 -197 72 -232 140 -89 172
39 378 235 379 31 1 64 -9 105 -30z m391 -8 c183 -52 470 -179 462 -204 -10
-31 -176 -111 -358 -172 -111 -38 -288 -80 -297 -72 -3 4 6 34 21 67 23 53 26
75 26 165 0 102 -1 104 -41 181 l-41 77 64 -7 c35 -3 109 -19 164 -35z"/>
</g>
</svg>
